<?xml version="1.0" encoding="UTF-8"?> <svg xmlns="http://www.w3.org/2000/svg" width="44" height="44" viewBox="0 0 44 44" fill="none"> <path d="M24.25 11V17.6H31M26.5 23.0998H17.5M26.5 27.5H17.5M19.75 18.7001H17.5M24.8125 11H15.25C14.6533 11 14.081 11.2318 13.659 11.6444C13.2371 12.0569 13 12.6165 13 13.2V30.8C13 31.3835 13.2371 31.9431 13.659 32.3556C14.081 32.7682 14.6533 33 15.25 33H28.75C29.3467 33 29.919 32.7682 30.341 32.3556C30.7629 31.9431 31 31.3835 31 30.8V17.05L24.8125 11Z" stroke="#5CD4A7" stroke-linecap="round" stroke-linejoin="round"></path> <circle cx="22" cy="22" r="21.5" stroke="#5CD4A7"></circle> </svg> 