<?xml version="1.0" encoding="UTF-8"?> <svg xmlns="http://www.w3.org/2000/svg" width="398" height="398" viewBox="0 0 398 398" fill="none"> <circle cx="199.5" cy="199.5" r="111.5" fill="black"></circle> <path d="M199.035 136.107L154.845 149.608L154.84 149.598C154.464 149.713 154.069 149.754 153.678 149.717C153.287 149.68 152.906 149.565 152.559 149.381C152.212 149.197 151.905 148.945 151.655 148.642C151.406 148.338 151.218 147.989 151.104 147.612C150.99 147.236 150.951 146.841 150.99 146.45C151.029 146.059 151.144 145.68 151.33 145.333C151.516 144.987 151.769 144.681 152.073 144.432C152.378 144.184 152.729 143.998 153.105 143.886L198.167 130.13C198.732 129.957 199.337 129.957 199.902 130.13L245.945 144.187C246.7 144.419 247.331 144.941 247.702 145.638C248.072 146.335 248.151 147.151 247.922 147.906C247.693 148.662 247.173 149.295 246.478 149.669C245.783 150.042 244.967 150.125 244.211 149.899L199.035 136.107Z" fill="#E5443C"></path> <path fill-rule="evenodd" clip-rule="evenodd" d="M197.461 278.538L197.434 278.521L193.964 276.654C174.617 266.243 161.174 253.126 151.905 239.785C143.887 228.192 138.06 215.228 134.712 201.535C132.253 191.508 131.009 181.221 131.005 170.897C130.956 166.118 131.27 161.343 131.945 156.612L132.687 152.123C132.703 151.884 132.747 151.648 132.819 151.419C132.938 151.044 133.129 150.696 133.383 150.396C133.637 150.095 133.948 149.848 134.298 149.669C134.648 149.489 135.031 149.381 135.423 149.351C135.815 149.32 136.209 149.368 136.583 149.491C136.957 149.614 137.302 149.81 137.6 150.067C137.794 150.235 137.966 150.428 138.11 150.64C138.211 150.786 138.299 150.941 138.372 151.101L164.89 202.831H233.801C234.113 202.831 234.419 202.88 234.71 202.974L235.017 202.399L259.705 151.032C260.054 150.329 260.666 149.793 261.408 149.539C261.475 149.516 261.542 149.496 261.61 149.478C261.716 149.448 261.824 149.424 261.934 149.405C262.321 149.341 262.717 149.355 263.099 149.444C263.481 149.534 263.841 149.698 264.16 149.928C264.478 150.158 264.748 150.448 264.953 150.782C265.158 151.116 265.296 151.488 265.357 151.876L266.141 156.617C266.815 161.348 267.129 166.123 267.081 170.902C267.077 181.227 265.832 191.513 263.373 201.54C260.029 215.23 254.205 228.192 246.191 239.785C236.907 253.126 223.458 266.237 204.131 276.654L200.46 278.632C200.027 278.867 199.543 278.989 199.051 278.989C198.788 278.989 198.527 278.954 198.275 278.886C197.989 278.812 197.714 278.695 197.461 278.538ZM240.335 205.037L260.793 162.506C261.027 165.294 261.129 168.092 261.099 170.892C261.094 180.733 259.907 190.538 257.563 200.096C254.393 213.082 248.872 225.377 241.274 236.373C233.327 247.803 222.174 259.062 206.409 268.496L240.278 205.151L240.335 205.037ZM231.61 208.777H167.938L199.114 269.594L231.61 208.777ZM137.3 162.058L191.917 268.658C176.01 259.191 164.778 247.868 156.781 236.373C149.182 225.377 143.661 213.082 140.492 200.096C138.148 190.54 136.961 180.737 136.956 170.897C136.924 167.946 137.039 164.996 137.3 162.058Z" fill="#E5443C"></path> <path fill-rule="evenodd" clip-rule="evenodd" d="M199 307C258.647 307 307 258.647 307 199C307 139.353 258.647 91 199 91C139.353 91 91 139.353 91 199C91 258.647 139.353 307 199 307ZM199 312C261.408 312 312 261.408 312 199C312 136.592 261.408 86 199 86C136.592 86 86 136.592 86 199C86 261.408 136.592 312 199 312Z" fill="#5CD4A7"></path> </svg> 