<?xml version="1.0" encoding="UTF-8"?> <svg xmlns="http://www.w3.org/2000/svg" width="44" height="44" viewBox="0 0 44 44" fill="none"> <path fill-rule="evenodd" clip-rule="evenodd" d="M33 30H29V23.001C29 21.081 28.153 20.0098 26.634 20.0098C24.981 20.0098 24 21.126 24 23.001V30H20V17H24V18.4619C24 18.4619 25.255 16.2598 28.083 16.2598C30.912 16.2598 33 17.9861 33 21.5581V30ZM15.442 14.9209C14.093 14.9209 13 13.819 13 12.46C13 11.102 14.093 10 15.442 10C16.79 10 17.883 11.102 17.883 12.46C17.884 13.819 16.79 14.9209 15.442 14.9209ZM13 30H18V17H13V30Z" stroke="#5CD4A7" stroke-linejoin="round"></path> <circle cx="22" cy="22" r="21.5" stroke="#5CD4A7"></circle> </svg> 