<?xml version="1.0" encoding="UTF-8"?> <svg xmlns="http://www.w3.org/2000/svg" width="44" height="44" viewBox="0 0 44 44" fill="none"> <path d="M17.548 32C26.6044 32 31.558 24.3044 31.558 17.6315C31.558 17.4125 31.558 17.195 31.5436 16.9784C32.5072 16.2646 33.3388 15.3784 34 14.3643C33.1024 14.7729 32.1484 15.0408 31.1728 15.159C32.2 14.5276 32.9692 13.5357 33.3376 12.3653C32.3704 12.9536 31.3132 13.3688 30.2104 13.5916C28.3456 11.5584 25.2268 11.4599 23.2432 13.3724C21.9652 14.6056 21.4216 16.4442 21.8188 18.1979C17.86 17.9937 14.1712 16.0763 11.6704 12.922C10.3636 15.2295 11.032 18.1804 13.1956 19.6622C12.412 19.6388 11.6452 19.4224 10.96 19.0311V19.0952C10.9612 21.4987 12.6136 23.5683 14.9104 24.0446C14.1856 24.2476 13.4248 24.2771 12.688 24.1306C13.3324 26.1884 15.1816 27.5978 17.2876 27.6384C15.544 29.0438 13.39 29.807 11.1724 29.8045C10.7812 29.8033 10.39 29.7799 10 29.7319C12.2524 31.2137 14.872 32 17.548 31.9963" stroke="#5CD4A7" stroke-linejoin="round"></path> <circle cx="22" cy="22" r="21.5" stroke="#5CD4A7"></circle> </svg> 