<?xml version="1.0" encoding="UTF-8"?> <svg xmlns="http://www.w3.org/2000/svg" width="44" height="44" viewBox="0 0 44 44" fill="none"> <path d="M26.3252 24.6424C25.0159 24.556 23.9865 23.4645 23.9865 22.1303C23.9865 22.0858 23.9874 22.0413 23.99 21.9967V22.0028C23.9874 21.9609 23.9856 21.912 23.9856 21.8623C23.9856 20.5307 25.0168 19.4427 26.3183 19.3632H26.3252C27.6328 19.4348 28.6657 20.5202 28.6657 21.8492C28.6657 21.9033 28.664 21.9566 28.6605 22.0098V22.0028C28.6631 22.0465 28.6649 22.098 28.6649 22.1495C28.6649 23.4794 27.6328 24.5665 26.3313 24.6416H26.3244L26.3252 24.6424ZM17.6895 24.6424C16.3802 24.556 15.3507 23.4645 15.3507 22.1303C15.3507 22.0858 15.3516 22.0413 15.3542 21.9967V22.0028C15.3516 21.9609 15.3499 21.912 15.3499 21.8623C15.3499 20.5307 16.381 19.4427 17.6826 19.3632H17.6895C18.9971 19.4348 20.03 20.5202 20.03 21.8492C20.03 21.9033 20.0282 21.9566 20.0248 22.0098V22.0028C20.0274 22.0447 20.0291 22.0936 20.0291 22.1434C20.0291 23.475 18.9979 24.563 17.6964 24.6424H17.6895ZM31.0053 12.6817C29.4777 11.9552 27.703 11.3807 25.8452 11.048L25.7161 11.0288C25.7117 11.0279 25.7065 11.0271 25.7013 11.0271C25.671 11.0271 25.645 11.0437 25.6312 11.0681C25.4284 11.427 25.2083 11.8749 25.0099 12.3342L24.9726 12.4311C24.0801 12.2871 23.0507 12.205 22.0022 12.205C20.9537 12.205 19.9242 12.2871 18.9199 12.4451L19.0317 12.4303C18.7978 11.8802 18.5742 11.4331 18.3272 11L18.3628 11.0672C18.348 11.0419 18.3212 11.0262 18.2909 11.0262C18.2865 11.0262 18.2813 11.0262 18.277 11.0271C16.2901 11.379 14.5154 11.9526 12.8569 12.7359L12.9877 12.68C12.973 12.6861 12.9609 12.6966 12.9531 12.7097C10.48 16.2382 9 20.6285 9 25.3672C9 26.1591 9.04159 26.9406 9.12218 27.7108L9.11438 27.6147C9.11698 27.64 9.12998 27.661 9.14818 27.6758C11.0025 29.0738 13.1584 30.2002 15.4851 30.9398L15.6376 30.9817C15.6445 30.9843 15.6532 30.9852 15.6618 30.9852C15.6896 30.9852 15.7138 30.9721 15.7285 30.952C16.1921 30.3233 16.6332 29.6108 17.0153 28.8633L17.0561 28.776C17.0613 28.7656 17.0647 28.7525 17.0647 28.7385C17.0647 28.7027 17.0422 28.673 17.011 28.6608H17.0101C16.2199 28.3534 15.5518 28.026 14.9157 27.6505L14.9825 27.6872C14.9573 27.6723 14.9409 27.6453 14.9409 27.6147C14.9409 27.5876 14.9539 27.5632 14.9738 27.5484C15.1098 27.4453 15.2468 27.3388 15.3767 27.2305C15.3906 27.2192 15.4088 27.2122 15.4279 27.2122C15.44 27.2122 15.4513 27.2148 15.4608 27.2192H15.4599C17.3732 28.1456 19.6192 28.687 21.99 28.687C24.3608 28.687 26.6077 28.1456 28.6129 27.179L28.5201 27.2192C28.5305 27.2139 28.5418 27.2113 28.5548 27.2113C28.5739 27.2113 28.5921 27.2183 28.6059 27.2296C28.7359 27.3379 28.872 27.4462 29.0097 27.5484C29.0297 27.5641 29.0427 27.5885 29.0427 27.6156C29.0427 27.6461 29.0262 27.6723 29.0028 27.6872C28.43 28.0321 27.7619 28.3587 27.0661 28.6285L26.9751 28.6599C26.9439 28.6721 26.9214 28.7027 26.9214 28.7376C26.9214 28.7516 26.9249 28.7647 26.9309 28.776C27.3651 29.6143 27.8053 30.325 28.2923 31L28.2576 30.9502C28.2723 30.9712 28.2974 30.9852 28.3243 30.9852C28.333 30.9852 28.3416 30.9834 28.3494 30.9817C30.832 30.2028 32.9914 29.0764 34.9047 27.6357L34.8484 27.6767C34.8674 27.6627 34.8796 27.6409 34.8822 27.6165C34.9575 26.9319 35 26.1373 35 25.3331C35 20.6049 33.5165 16.2259 30.9941 12.6424L31.0391 12.7105C31.0322 12.6966 31.0201 12.6852 31.0062 12.6791L31.0053 12.6817Z" stroke="#5CD4A7" stroke-linejoin="round"></path> <circle cx="22" cy="22" r="21.5" stroke="#5CD4A7"></circle> </svg> 